<?xml version="1.0" encoding="UTF-8"?>
<svg xmlns="http://www.w3.org/2000/svg" xmlns:xlink="http://www.w3.org/1999/xlink" viewBox="0 0 100 100" version="1.1">
<g id="surface1">
<path style=" stroke:none;fill-rule:nonzero;fill-opacity:1;" d="M 87.128906 50.234375 C 87.363281 49.140625 87.5 48.027344 87.5 46.875 C 87.5 38.242188 80.507812 31.25 71.875 31.25 C 70.488281 31.25 69.140625 31.425781 67.851562 31.777344 C 65.429688 24.21875 58.359375 18.75 50 18.75 C 41.464844 18.75 34.277344 24.453125 31.992188 32.246094 C 29.765625 31.601562 27.421875 31.25 25 31.25 C 11.191406 31.25 0 42.441406 0 56.25 C 0 70.058594 11.191406 81.25 25 81.25 L 84.375 81.25 C 93.007812 81.25 100 74.257812 100 65.625 C 100 57.929688 94.453125 51.542969 87.128906 50.234375 Z M 65.625 68.4375 L 59.0625 75 L 48.4375 64.375 L 37.8125 75 L 31.25 68.4375 L 41.875 57.8125 L 31.25 47.1875 L 37.8125 40.625 L 48.4375 51.25 L 59.0625 40.625 L 65.625 47.1875 L 55 57.8125 Z M 65.625 68.4375 "/>
</g>
</svg>
