<?xml version="1.0" encoding="UTF-8"?>
<svg xmlns="http://www.w3.org/2000/svg" xmlns:xlink="http://www.w3.org/1999/xlink" viewBox="0 0 100 100" version="1.1">
<g id="surface1">
<path style=" stroke:none;fill-rule:nonzero;fill-opacity:1;" d="M 37.5 12.5 C 37.5 5.59375 43.09375 0 50 0 C 56.90625 0 62.5 5.59375 62.5 12.5 C 62.5 19.40625 56.90625 25 50 25 C 43.09375 25 37.5 19.40625 37.5 12.5 Z M 77.242188 50 C 77.242188 44.335938 81.835938 39.742188 87.5 39.742188 C 93.164062 39.742188 97.757812 44.335938 97.757812 50 C 97.757812 55.664062 93.164062 60.257812 87.5 60.257812 C 81.835938 60.257812 77.242188 55.664062 77.242188 50 Z M 67.230469 76.519531 C 67.230469 71.386719 71.386719 67.230469 76.519531 67.230469 C 81.648438 67.230469 85.804688 71.386719 85.804688 76.519531 C 85.804688 81.648438 81.648438 85.804688 76.519531 85.804688 C 71.386719 85.804688 67.230469 81.648438 67.230469 76.519531 Z M 41.585938 87.5 C 41.585938 82.855469 45.355469 79.085938 50 79.085938 C 54.644531 79.085938 58.414062 82.855469 58.414062 87.5 C 58.414062 92.144531 54.644531 95.914062 50 95.914062 C 45.355469 95.914062 41.585938 92.144531 41.585938 87.5 Z M 15.863281 76.519531 C 15.863281 72.3125 19.273438 68.898438 23.480469 68.898438 C 27.6875 68.898438 31.101562 72.3125 31.101562 76.519531 C 31.101562 80.726562 27.6875 84.136719 23.480469 84.136719 C 19.273438 84.136719 15.863281 80.726562 15.863281 76.519531 Z M 5.601562 50 C 5.601562 46.1875 8.6875 43.101562 12.5 43.101562 C 16.3125 43.101562 19.398438 46.1875 19.398438 50 C 19.398438 53.8125 16.3125 56.898438 12.5 56.898438 C 8.6875 56.898438 5.601562 53.8125 5.601562 50 Z M 17.230469 23.480469 C 17.230469 20.03125 20.03125 17.230469 23.480469 17.230469 C 26.929688 17.230469 29.730469 20.03125 29.730469 23.480469 C 29.730469 26.929688 26.929688 29.730469 23.480469 29.730469 C 20.03125 29.730469 17.230469 26.929688 17.230469 23.480469 Z M 87.835938 23.480469 C 87.835938 29.730469 82.769531 34.800781 76.511719 34.800781 C 70.257812 34.800781 65.1875 29.730469 65.1875 23.480469 C 65.1875 17.226562 70.257812 12.164062 76.511719 12.164062 C 82.769531 12.164062 87.835938 17.230469 87.835938 23.480469 Z M 87.835938 23.480469 "/>
</g>
</svg>
